<?xml version="1.0" standalone="no"?>
<!DOCTYPE svg PUBLIC "-//W3C//DTD SVG 20010904//EN"
 "http://www.w3.org/TR/2001/REC-SVG-20010904/DTD/svg10.dtd">
<svg version="1.0" xmlns="http://www.w3.org/2000/svg"
 width="64.000000pt" height="64.000000pt" viewBox="0 0 64.000000 64.000000"
 preserveAspectRatio="xMidYMid meet">

<g transform="translate(0.000000,64.000000) scale(0.100000,-0.100000)"
fill="#000000" stroke="none">
<path d="M252 629 c-48 -14 -109 -80 -123 -131 -14 -54 -5 -120 22 -165 23
-37 84 -83 111 -83 9 0 25 -14 35 -30 9 -17 20 -30 23 -30 3 0 13 13 23 29 10
17 28 31 46 34 43 9 108 77 122 129 33 126 -47 244 -172 253 -30 3 -69 0 -87
-6z m163 -41 c123 -83 102 -254 -37 -312 -20 -9 -42 -24 -47 -33 -10 -16 -12
-17 -21 -2 -5 9 -34 28 -64 43 -46 22 -59 35 -80 78 -14 29 -26 61 -26 72 0
73 58 156 123 175 45 14 115 5 152 -21z"/>
<path d="M260 557 c-36 -18 -70 -74 -70 -116 0 -45 30 -95 69 -116 119 -61
242 76 168 186 -27 41 -60 59 -107 59 -19 0 -46 -6 -60 -13z m110 -22 c32 -17
60 -61 60 -95 0 -53 -57 -110 -110 -110 -53 0 -110 57 -110 110 0 33 28 78 58
94 35 20 66 20 102 1z"/>
<path d="M259 501 c-39 -40 -39 -82 0 -122 40 -39 82 -39 122 0 20 20 29 39
29 61 0 43 -47 90 -90 90 -22 0 -41 -9 -61 -29z m106 -16 c14 -13 25 -33 25
-45 0 -27 -43 -70 -70 -70 -27 0 -70 43 -70 70 0 27 43 70 70 70 12 0 32 -11
45 -25z"/>
<path d="M296 487 c-26 -19 -17 -51 17 -55 15 -2 27 -8 27 -14 0 -6 -12 -8
-30 -4 -34 6 -40 -8 -10 -24 28 -15 62 4 58 33 -2 16 -11 23 -30 25 -16 2 -28
8 -28 14 0 6 12 8 30 5 34 -7 40 7 11 23 -25 13 -24 13 -45 -3z"/>
<path d="M88 599 c-17 -18 -17 -20 2 -39 l20 -20 20 20 20 20 -20 20 c-23 23
-20 23 -42 -1z"/>
<path d="M508 599 c-17 -18 -17 -20 2 -39 l20 -20 20 20 20 20 -20 20 c-23 23
-20 23 -42 -1z"/>
<path d="M17 409 c-16 -18 -16 -20 3 -39 l20 -20 20 20 20 20 -20 20 c-23 23
-20 23 -43 -1z"/>
<path d="M578 409 c-17 -18 -17 -20 2 -39 l20 -20 20 20 20 20 -20 20 c-23 23
-20 23 -42 -1z"/>
<path d="M29 311 c-44 -45 -40 -82 16 -137 l45 -43 45 43 c35 34 45 51 45 76
0 43 -47 90 -90 90 -22 0 -41 -9 -61 -29z m66 2 c-47 -12 -66 -69 -36 -105 9
-10 24 -18 34 -18 10 0 15 -4 12 -10 -10 -16 -21 -12 -54 19 -17 16 -31 39
-31 50 0 29 44 71 72 70 20 -1 21 -2 3 -6z m65 -63 c0 -20 -39 -72 -40 -52 0
6 -10 13 -22 13 -17 1 -19 2 -5 6 23 6 22 23 -3 23 -11 0 -20 5 -20 10 0 6 9
10 20 10 25 0 26 17 3 23 -14 4 -12 5 5 6 12 0 22 7 22 14 1 19 40 -33 40 -53z"/>
<path d="M489 311 c-44 -45 -40 -82 16 -137 l45 -43 45 43 c35 34 45 51 45 76
0 43 -47 90 -90 90 -22 0 -41 -9 -61 -29z m79 -3 c-3 -7 -11 -13 -18 -13 -7 0
-15 6 -17 13 -3 7 4 12 17 12 13 0 20 -5 18 -12z m-52 -7 c-3 -5 1 -14 10 -21
12 -11 12 -15 2 -22 -11 -6 -10 -10 1 -17 11 -7 11 -9 0 -14 -12 -4 -11 -7 1
-16 8 -6 17 -11 20 -11 3 0 12 5 20 11 12 9 13 12 1 16 -11 5 -11 7 0 14 11 7
12 11 1 17 -10 7 -10 11 2 22 9 7 13 17 10 24 -3 6 4 0 15 -13 12 -13 21 -32
21 -43 0 -19 -53 -78 -70 -78 -16 0 -70 59 -70 77 0 18 26 63 36 63 3 0 3 -4
0 -9z"/>
<path d="M332 179 c-25 -13 -48 -32 -53 -46 l-9 -24 -55 31 c-31 18 -62 29
-70 26 -32 -12 -14 -42 55 -89 l70 -48 81 11 c94 13 125 8 134 -20 5 -17 15
-20 66 -20 32 0 59 3 59 7 0 3 -20 39 -45 78 -38 62 -52 76 -94 94 -62 26 -85
26 -139 0z m136 -23 c27 -13 53 -35 59 -48 7 -12 22 -38 33 -55 l22 -33 -40 0
c-32 0 -42 4 -47 20 -9 28 -44 34 -138 22 l-82 -11 -60 41 c-33 23 -62 43 -64
45 -2 2 -2 5 1 9 3 3 27 -9 54 -26 49 -31 52 -31 147 -14 15 3 27 12 27 19 0
11 -6 12 -31 3 -22 -7 -34 -7 -41 0 -8 8 1 17 33 31 57 26 70 26 127 -3z"/>
</g>
</svg>
